HIERARCHY
ROOT Hips
{
 OFFSET 0.000000 0.000000 0.000000
 CHANNELS 6 Xposition Yposition Zposition Yrotation Xrotation Zrotation
 JOINT Chest
 {
  OFFSET 0.000000 12.953391 -0.028419
  CHANNELS 3 Yrotation Xrotation Zrotation
  JOINT Chest2
  {
   OFFSET 0.000000 10.280254 0.051622
   CHANNELS 3 Yrotation Xrotation Zrotation
   JOINT Chest3
   {
    OFFSET 0.000000 9.287180 0.000000
    CHANNELS 3 Yrotation Xrotation Zrotation
    JOINT Chest4
    {
     OFFSET 0.000000 9.287180 0.000000
     CHANNELS 3 Yrotation Xrotation Zrotation
     JOINT Neck
     {
      OFFSET 0.000000 13.296264 0.000000
      CHANNELS 3 Yrotation Xrotation Zrotation
      JOINT Head
      {
       OFFSET 0.000000 8.959264 0.099003
       CHANNELS 3 Yrotation Xrotation Zrotation
       End Site
       {
        OFFSET 0.000000 17.121337 0.039303
       }
      }
     }
     JOINT RightCollar
     {
      OFFSET -3.193511 7.451388 0.000000
      CHANNELS 3 Yrotation Xrotation Zrotation
      JOINT RightShoulder
      {
       OFFSET -15.792092 0.000000 0.000000
       CHANNELS 3 Yrotation Xrotation Zrotation
       JOINT RightElbow
       {
        OFFSET -31.151839 0.000000 0.000000
        CHANNELS 3 Yrotation Xrotation Zrotation
        JOINT RightWrist
        {
         OFFSET -25.536298 0.000000 0.002321
         CHANNELS 3 Yrotation Xrotation Zrotation
         End Site
         {
          OFFSET -19.133213 0.000000 0.000000
         }
        }
       }
      }
     }
     JOINT LeftCollar
     {
      OFFSET 3.193511 7.451388 0.000000
      CHANNELS 3 Yrotation Xrotation Zrotation
      JOINT LeftShoulder
      {
       OFFSET 15.792092 0.000000 0.000000
       CHANNELS 3 Yrotation Xrotation Zrotation
       JOINT LeftElbow
       {
        OFFSET 31.151839 0.000000 0.000000
        CHANNELS 3 Yrotation Xrotation Zrotation
        JOINT LeftWrist
        {
         OFFSET 25.536298 0.000000 0.002321
         CHANNELS 3 Yrotation Xrotation Zrotation
         End Site
         {
          OFFSET 19.133213 0.000000 0.000000
         }
        }
       }
      }
     }
    }
   }
  }
 }
 JOINT RightHip
 {
  OFFSET -10.745749 0.139252 0.014209
  CHANNELS 3 Yrotation Xrotation Zrotation
  JOINT RightKnee
  {
   OFFSET 0.000000 -43.743899 -0.006071
   CHANNELS 3 Yrotation Xrotation Zrotation
   JOINT RightAnkle
   {
    OFFSET 0.000000 -43.214199 0.089931
    CHANNELS 3 Yrotation Xrotation Zrotation
    JOINT RightToe
    {
     OFFSET 0.000000 -9.699830 19.151588
     CHANNELS 3 Yrotation Xrotation Zrotation
     End Site
     {
      OFFSET 0.000000 -1.292898 4.893873
     }
    }
   }
  }
 }
 JOINT LeftHip
 {
  OFFSET 10.745749 0.139252 0.014209
  CHANNELS 3 Yrotation Xrotation Zrotation
  JOINT LeftKnee
  {
   OFFSET 0.000000 -43.743899 -0.006071
   CHANNELS 3 Yrotation Xrotation Zrotation
   JOINT LeftAnkle
   {
    OFFSET 0.000000 -43.214199 0.089931
    CHANNELS 3 Yrotation Xrotation Zrotation
    JOINT LeftToe
    {
     OFFSET 0.000000 -9.699830 19.151588
     CHANNELS 3 Yrotation Xrotation Zrotation
     End Site
     {
      OFFSET 0.000000 -1.292898 4.893873
     }
    }
   }
  }
 }
}
MOTION
Frames: 8
Frame Time: 0.016667
5.216768 98.648898 73.927451 63.112620 -7.329161 2.453925 0.773625 7.799610 8.091815 0.206626 3.479569 3.574723 0.206626 3.479569 3.574723 0.134552 2.610991 2.679040 -11.315656 23.583331 3.968014 -21.328179 9.016097 9.911552 12.517218 9.041470 5.893026 7.401040 -29.819361 62.658320 -2.960995 20.818368 -13.015166 2.230028 17.128832 -45.545081 0.516298 -1.416242 -13.058617 0.208181 0.226272 -74.969967 -18.285702 29.319222 -5.845219 4.942004 15.187831 -1.244806 0.076403 10.319814 -0.313391 -1.065443 2.476942 -0.380000 3.240148 -6.079814 -0.514228 0.000000 0.000000 0.000000 -5.612531 1.623206 0.767096 -2.735659 8.173921 -0.083557 -17.932142 -0.207035 -3.240144 0.000000 -0.000000 0.000000
5.136567 98.628320 73.878009 63.209480 -7.320387 2.548747 0.800573 7.777163 8.009289 0.220368 3.469928 3.537769 0.220374 3.469931 3.537771 0.145131 2.603829 2.651265 -11.331090 23.574952 4.001551 -21.364850 9.010281 9.976085 12.437687 9.049571 5.998020 7.386845 -29.762201 62.605864 -2.881110 20.717594 -12.971818 2.254011 17.148323 -45.528986 0.426958 -1.378484 -12.944091 0.208763 0.127626 -74.974534 -17.859422 29.291162 -5.783855 4.999601 15.230085 -1.329455 0.271927 10.273722 -0.352392 -1.057548 2.386660 -0.319689 2.891642 -5.876930 -0.679988 0.000000 0.000000 0.000000 -5.346676 1.347021 0.682439 -3.330836 8.440332 0.015503 -17.698503 -0.428484 -3.436379 0.000000 0.000000 0.000000
5.056366 98.607742 73.828566 63.306354 -7.311772 2.643583 0.827571 7.754963 7.926711 0.234110 3.460386 3.500788 0.234114 3.460387 3.500789 0.155697 2.596733 2.623468 -11.346568 23.566553 4.035054 -21.401622 9.004502 10.040556 12.358262 9.057708 6.103087 7.372516 -29.704989 62.553537 -2.801367 20.616762 -12.928621 2.278001 17.167811 -45.512885 0.337792 -1.340699 -12.829501 0.209342 0.028987 -74.979255 -17.432969 29.262906 -5.721908 5.057579 15.272725 -1.413599 0.467509 10.228204 -0.391670 -1.049781 2.296052 -0.259874 2.542823 -5.674505 -0.846650 0.000000 0.000000 0.000000 -5.079980 1.071870 0.595943 -3.926638 8.706852 0.110895 -17.463777 -0.649309 -3.632932 0.000000 -0.000000 0.000000
4.954512 98.589122 73.775872 63.431792 -7.285381 2.721498 0.846748 7.739653 7.851228 0.244139 3.453778 3.467056 0.244139 3.453778 3.467056 0.163440 2.591818 2.598123 -11.356619 23.551849 4.069008 -21.429470 8.986316 10.105642 12.289965 9.060352 6.198724 7.380583 -29.660880 62.490231 -2.718496 20.498141 -12.888685 2.298364 17.176351 -45.493620 0.250831 -1.306388 -12.717227 0.216580 -0.063401 -74.985679 -17.077379 29.221090 -5.664919 5.126174 15.303876 -1.477720 0.618046 10.160212 -0.428128 -1.058059 2.207731 -0.200753 2.235209 -5.482492 -0.999643 0.000000 0.000000 0.000000 -4.826272 0.788192 0.524318 -4.468182 8.950385 0.185107 -17.308353 -0.825508 -3.813546 0.000000 0.000000 0.000000
4.823069 98.571475 73.722115 63.588936 -7.234154 2.768446 0.856881 7.734387 7.788244 0.249774 3.451501 3.438981 0.249773 3.451501 3.438981 0.167835 2.590129 2.577044 -11.357575 23.526217 4.102705 -21.442204 8.946450 10.170065 12.241094 9.059958 6.279713 7.427762 -29.637757 62.410888 -2.637806 20.352347 -12.853562 2.317870 17.164478 -45.470953 0.165668 -1.273739 -12.605094 0.237896 -0.147633 -74.998934 -16.813897 29.147859 -5.608985 5.219715 15.319075 -1.509293 0.718503 10.056487 -0.452980 -1.080074 2.138223 -0.142038 1.978050 -5.325068 -1.124355 -0.000000 0.000000 -0.000000 -4.584070 0.491444 0.482031 -4.927074 9.178168 0.225572 -17.272716 -0.946985 -3.961398 0.000000 -0.000000 0.000000
4.669972 98.555786 73.665106 63.774642 -7.165088 2.798683 0.859064 7.735951 7.732396 0.251650 3.452134 3.414178 0.251648 3.452135 3.414179 0.169378 2.590603 2.558437 -11.353135 23.494240 4.136804 -21.446129 8.894098 10.235089 12.203439 9.053973 6.351318 7.497256 -29.627586 62.320395 -2.554036 20.188776 -12.821839 2.333745 17.141658 -45.445142 0.082905 -1.244553 -12.495120 0.265844 -0.225592 -75.013987 -16.621668 29.061082 -5.558754 5.323654 15.322281 -1.520913 0.773889 9.929857 -0.475345 -1.118149 2.071125 -0.083796 1.762312 -5.177767 -1.234981 -0.000000 0.000000 -0.000000 -4.355378 0.185501 0.453939 -5.331429 9.382641 0.246994 -17.317222 -1.024584 -4.092943 0.000000 0.000000 0.000000
4.497378 98.546967 73.595027 64.008077 -7.081463 2.837835 0.848844 7.741480 7.674693 0.247993 3.454319 3.388740 0.247993 3.454319 3.388740 0.166770 2.592208 2.539382 -11.348833 23.463432 4.173868 -21.450893 8.844512 10.305242 12.163265 9.029326 6.419797 7.561228 -29.619631 62.222693 -2.448136 20.017834 -12.792360 2.334046 17.125356 -45.413765 0.006059 -1.227807 -12.395934 0.284796 -0.296755 -75.017107 -16.508355 29.001195 -5.532405 5.404830 15.314277 -1.531072 0.754283 9.796361 -0.518906 -1.195210 1.959764 -0.026881 1.602001 -4.977520 -1.360216 0.000000 0.000000 0.000000 -4.159098 -0.126407 0.412110 -5.711025 9.518385 0.273396 -17.402236 -1.046001 -4.241741 0.000000 0.000000 0.000000
4.306122 98.541041 73.514202 64.300859 -6.996549 2.881748 0.818257 7.754970 7.617138 0.235164 3.459708 3.363677 0.235160 3.459704 3.363676 0.157257 2.596163 2.520657 -11.344381 23.439301 4.214304 -21.455482 8.807911 10.380246 12.115369 8.970391 6.488972 7.626105 -29.611120 62.104649 -2.337721 19.837017 -12.755870 2.331021 17.120496 -45.381059 -0.061097 -1.235022 -12.308462 0.291325 -0.350048 -74.999636 -16.483578 28.994410 -5.542683 5.442468 15.286472 -1.546790 0.639126 9.680720 -0.572703 -1.332372 1.775128 0.022515 1.518543 -4.690867 -1.519717 0.000000 -0.000000 -0.000000 -4.029371 -0.424671 0.352624 -6.053783 9.568230 0.310733 -17.541249 -0.984348 -4.411507 0.000000 0.000000 0.000000
